<?xml version="1.0" standalone="no"?>
<!DOCTYPE svg PUBLIC "-//W3C//DTD SVG 20010904//EN"
 "http://www.w3.org/TR/2001/REC-SVG-20010904/DTD/svg10.dtd">
<svg version="1.0" xmlns="http://www.w3.org/2000/svg"
 width="112.000000pt" height="112.000000pt" viewBox="0 0 112.000000 112.000000"
 preserveAspectRatio="xMidYMid meet">

<g transform="translate(0.000000,112.000000) scale(0.100000,-0.100000)"
fill="#000000" stroke="none">
<path d="M130 1080 c-11 -11 -20 -27 -20 -35 0 -10 -10 -15 -30 -15 -40 0 -58
-32 -35 -66 13 -20 23 -24 70 -24 29 0 57 5 60 10 14 23 18 120 5 135 -17 20
-26 19 -50 -5z"/>
<path d="M425 1075 c-33 -7 -78 -20 -100 -30 -49 -21 -200 -172 -252 -251
l-38 -59 -4 -175 c-8 -354 -9 -339 29 -416 28 -56 44 -75 83 -98 51 -31 72
-29 42 4 -22 24 -9 26 23 4 12 -8 22 -24 22 -35 0 -17 8 -19 92 -19 72 0 89 3
80 12 -20 20 -14 37 18 53 42 22 50 19 50 -20 0 -40 2 -41 34 -20 13 9 32 17
42 19 11 3 27 7 37 11 29 12 19 -12 -15 -34 l-33 -21 133 0 134 0 -4 33 c-3
28 4 38 41 72 40 36 43 38 36 15 -4 -14 -15 -44 -26 -67 -10 -24 -14 -43 -10
-43 14 0 93 74 122 113 l29 40 0 -28 c0 -27 2 -26 32 21 38 60 74 145 82 199
9 56 -11 341 -28 396 -25 81 -62 143 -120 197 -63 60 -173 116 -255 132 -70
13 -201 11 -276 -5z m382 -56 c34 -16 87 -53 118 -81 88 -81 116 -147 141
-335 18 -144 15 -265 -10 -309 l-16 -29 5 40 5 40 -16 -35 c-9 -19 -29 -62
-45 -95 -15 -33 -43 -75 -62 -93 l-34 -33 8 58 c5 32 14 86 19 119 6 34 9 110
9 170 l-2 109 -8 -134 c-8 -123 -12 -140 -43 -205 -19 -39 -46 -82 -60 -95
l-26 -24 0 57 c0 32 7 71 16 89 l15 32 -26 -33 c-15 -18 -30 -30 -35 -27 -5 3
-12 0 -16 -6 -5 -8 -3 -9 7 -4 8 4 -4 -8 -26 -29 -22 -20 -56 -45 -76 -56 -38
-20 -139 -60 -152 -60 -9 0 1 46 19 81 7 15 16 42 19 60 3 19 20 64 38 102 18
37 32 67 31 67 -1 0 -18 -22 -38 -50 l-36 -50 -72 0 c-40 0 -101 6 -136 14
l-63 13 24 -26 c13 -14 31 -39 41 -55 18 -28 18 -29 0 -23 -11 3 -44 13 -74
21 -33 9 -64 26 -77 41 -28 32 -29 26 -4 -23 11 -20 46 -64 80 -97 34 -33 61
-63 61 -66 0 -10 -127 27 -154 45 -33 21 -42 20 -25 -1 13 -16 12 -17 -3 -5
-10 8 -17 17 -15 20 1 4 -12 27 -28 51 -30 44 -30 45 -30 188 1 78 4 145 8
149 3 4 14 1 24 -7 14 -11 13 -7 -4 23 -32 54 -38 116 -19 181 17 57 74 152
91 151 6 0 22 19 37 43 29 46 89 94 153 124 58 27 205 26 286 -1 110 -37 190
-99 260 -202 57 -83 89 -77 53 8 -35 84 -125 170 -221 211 -55 23 -56 24 -18
18 22 -4 68 -20 102 -36z m-438 -793 c10 -12 9 -14 -11 -9 -26 6 -58 31 -58
45 0 11 53 -16 69 -36z m55 -2 c9 -22 -3 -32 -14 -14 -12 19 -12 30 -1 30 5 0
12 -7 15 -16z m-21 -34 c6 0 4 -7 -5 -16 -18 -18 -38 -11 -38 13 0 10 6 13 16
9 9 -3 21 -6 27 -6z m-70 -40 c5 -4 -5 -12 -21 -18 -27 -9 -33 -7 -57 18 l-27
28 49 -10 c26 -6 52 -14 56 -18z m433 -25 c-6 -22 -9 -23 -32 -13 l-25 12 28
22 c30 24 39 18 29 -21z"/>
<path d="M301 918 c-23 -29 -58 -86 -78 -127 -31 -65 -37 -87 -41 -169 -5
-106 -11 -102 68 -46 25 18 62 35 82 39 52 10 207 -12 246 -35 17 -11 32 -17
32 -15 0 2 -28 36 -62 74 -73 80 -120 154 -155 243 -38 96 -42 97 -92 36z"/>
<path d="M593 873 c8 -16 17 -41 21 -58 9 -37 86 -216 99 -230 14 -15 4 186
-11 210 -10 17 -11 15 -6 -15 8 -42 3 -38 -60 53 -50 71 -66 85 -43 40z"/>
<path d="M980 749 c0 -3 8 -21 17 -39 9 -19 24 -63 34 -99 10 -36 18 -56 18
-45 1 31 -35 145 -53 169 -9 11 -16 17 -16 14z"/>
<path d="M897 625 c3 -49 6 -94 8 -100 7 -21 3 141 -5 165 -4 14 -5 -15 -3
-65z"/>
<path d="M1053 495 c0 -22 2 -30 4 -17 2 12 2 30 0 40 -3 9 -5 -1 -4 -23z"/>
<path d="M113 490 c4 -14 7 -36 7 -49 0 -32 7 -24 14 16 4 21 1 35 -11 44 -15
13 -16 11 -10 -11z"/>
<path d="M680 491 c-12 -24 -13 -34 -1 -27 9 6 22 46 15 46 -2 0 -8 -9 -14
-19z"/>
</g>
</svg>
